<svg width="70" height="24" viewBox="0 0 70 24" fill="none" xmlns="http://www.w3.org/2000/svg">
<g clip-path="url(#clip0_404_222)">
<path d="M45.7642 0.788396C45.5678 0.788483 45.3733 0.826746 45.1919 0.900995C45.0105 0.975245 44.8457 1.08403 44.7069 1.22112C44.4326 1.49157 44.2681 1.87359 44.2681 2.26574V20.0973C44.2681 20.4895 44.4258 20.8647 44.7069 21.142C44.8457 21.279 45.0106 21.3878 45.1921 21.462C45.3735 21.5362 45.5681 21.5744 45.7645 21.5744C45.961 21.5744 46.1555 21.5362 46.337 21.462C46.5185 21.3878 46.6833 21.279 46.8221 21.142C47.0964 20.8715 47.261 20.4895 47.261 20.0973V2.26507C47.261 1.87291 47.1033 1.49766 46.8221 1.22044C46.6833 1.08327 46.5184 0.974442 46.3369 0.90019C46.1553 0.825937 45.9607 0.787718 45.7642 0.78772V0.788396ZM22.9716 7.07371C22.9716 6.25829 22.3017 5.59704 21.4769 5.59704C20.6521 5.59704 19.9822 6.25829 19.9822 7.07371V20.096C19.9822 20.9114 20.6521 21.5726 21.4769 21.5726C22.3017 21.5726 22.9716 20.9114 22.9716 20.096V7.07371Z" fill="#B5C4D3"/>
<path d="M23.394 2.26773C23.3843 2.76312 23.178 3.23502 22.8194 3.58212C22.461 3.92883 21.979 4.12306 21.4769 4.12306C20.9748 4.12306 20.4928 3.92883 20.1344 3.58212C19.7758 3.23502 19.5695 2.76312 19.5598 2.26773C19.5596 1.76571 19.7616 1.28416 20.1214 0.928988C20.2991 0.753155 20.5104 0.613646 20.7429 0.518456C20.9755 0.423267 21.2248 0.374268 21.4766 0.374268C21.7284 0.374268 21.9777 0.423267 22.2102 0.518456C22.4428 0.613646 22.654 0.753155 22.8318 0.928988C23.1915 1.28416 23.3935 1.76571 23.3933 2.26773H23.394Z" fill="#BBD5DF"/>
<path d="M41.5652 10.3096C40.1281 7.10069 36.7279 4.83295 32.8485 5.22511C31.5406 5.36144 30.2824 5.79467 29.1727 6.49082C28.0626 7.18745 27.1309 8.1279 26.4507 9.23862C25.7701 10.35 25.3592 11.6014 25.2501 12.8951C25.1404 14.1892 25.3365 15.4915 25.8212 16.6977C26.3059 17.9043 27.0669 18.984 28.0448 19.8525C29.0224 20.7204 30.1904 21.3535 31.4573 21.7024C32.7241 22.0512 34.0556 22.1057 35.3473 21.8617C36.639 21.6177 37.8558 21.0818 38.9022 20.2961C39.0782 20.1629 39.2218 19.9927 39.3225 19.7977C39.4233 19.603 39.4788 19.388 39.4843 19.1689C39.4955 18.7805 39.35 18.4034 39.0797 18.1206C38.8094 17.8378 38.4363 17.6723 38.0423 17.6605C37.7038 17.6498 37.3718 17.7538 37.1016 17.9553C36.066 18.7439 34.7786 19.1415 33.4718 19.0763C32.4104 19.0229 31.387 18.6697 30.5234 18.0587C29.6562 17.4486 28.9833 16.6073 28.5837 15.6335C28.5292 15.5022 28.5259 15.3557 28.5744 15.2221C28.6229 15.0885 28.7197 14.9774 28.8463 14.91C28.9302 14.8656 29.024 14.8423 29.1192 14.8424H39.5035C40.0038 14.8444 40.4934 14.6996 40.91 14.4264C41.3266 14.1533 41.6514 13.764 41.8429 13.3082C41.9706 13.0057 42.0365 12.6813 42.037 12.3536C42.016 11.6501 41.8592 10.9571 41.5748 10.3116L41.5652 10.3096ZM33.7316 8.11083C34.8434 8.1111 35.9294 8.44038 36.8493 9.05606C37.7697 9.67246 38.4815 10.547 38.8926 11.5665C38.9273 11.6535 38.9402 11.7474 38.9303 11.8404C38.92 11.9332 38.8868 12.0222 38.8338 12.0996C38.7808 12.177 38.7094 12.2405 38.6258 12.2846C38.5423 12.3287 38.4491 12.3519 38.3543 12.3522H29.1083C29.0135 12.3523 28.9201 12.3291 28.8367 12.2846C28.7531 12.24 28.6818 12.1764 28.6283 12.1C28.5748 12.0236 28.5419 11.9337 28.5323 11.8404C28.5224 11.7474 28.5353 11.6535 28.57 11.5665C28.9811 10.547 29.6928 9.67246 30.6133 9.05606C31.5346 8.44346 32.6197 8.11447 33.7309 8.11083H33.7316ZM58.0196 19.0817C56.9537 19.082 55.9104 18.7794 55.0144 18.2102C54.1175 17.6387 53.404 16.8273 52.9574 15.8708C52.5155 14.9131 52.362 13.8503 52.5152 12.809C52.6683 11.7677 53.1217 10.7917 53.8213 9.99724L51.5587 8.09258C50.8261 8.93154 50.2692 9.90516 49.92 10.9573C49.5698 12.0096 49.4335 13.1195 49.5188 14.2237C49.6039 15.3278 49.9097 16.4049 50.4102 17.3928C50.9177 18.3801 51.6179 19.259 52.4706 19.979C53.3229 20.6987 54.3108 21.2456 55.3778 21.5881C56.4444 21.9307 57.5692 22.0616 58.6874 21.9735C59.8059 21.8855 60.8955 21.5799 61.8935 21.0743C62.8921 20.5692 63.7796 19.8746 64.5052 19.0303L62.2425 17.1264C61.7219 17.739 61.0712 18.2316 60.3364 18.5692C59.6022 18.9071 58.8017 19.0818 57.9915 19.081L58.0196 19.0817Z" fill="#C7D4E1"/>
<path d="M58.0198 5.17506C56.7964 5.17357 55.5871 5.43305 54.4749 5.9357C53.3619 6.43848 52.3721 7.17235 51.5732 8.08715L53.829 9.99181C54.7899 8.89988 56.1497 8.227 57.6117 8.11996C59.0737 8.01293 60.5194 8.48043 61.6332 9.42048C62.7472 10.3621 63.4396 11.6992 63.5599 13.1412C63.6794 14.5835 63.2166 16.014 62.2722 17.1216L64.528 19.0256C65.5777 17.8 66.2508 16.3044 66.4684 14.7146C66.6856 13.1243 66.4377 11.506 65.754 10.05C65.0704 8.59457 63.9792 7.36223 62.6089 6.49824C61.2371 5.63746 59.6457 5.17859 58.0198 5.17506V5.17506Z" fill="#00AEEF"/>
<path d="M17.226 18.0215C16.9683 17.8012 16.6419 17.6744 16.301 17.6622C15.9602 17.6501 15.6253 17.7532 15.3521 17.9546C14.5299 18.5751 13.5479 18.9564 12.5174 19.0553C11.4869 19.1542 10.4488 18.9669 9.52061 18.5144C8.59232 18.0611 7.81046 17.3618 7.26275 16.4948C6.71513 15.6269 6.42408 14.6255 6.42238 13.6033C6.42069 12.5811 6.70841 11.5788 7.25315 10.7091C7.79745 9.84014 8.57708 9.13832 9.50416 8.68278C10.4308 8.2268 11.4684 8.03585 12.4994 8.13157C13.5304 8.22729 14.5137 8.60585 15.3377 9.22436C15.6078 9.42963 15.9411 9.5372 16.282 9.52908C16.6229 9.52096 16.9505 9.39763 17.2102 9.17974C17.3782 9.03775 17.5119 8.86196 17.6011 8.66385C17.6902 8.46575 17.7354 8.24938 17.7313 8.03167C17.7272 7.81396 17.6724 7.6003 17.5736 7.40625C17.4749 7.2122 17.3323 7.04114 17.1588 6.90862C15.8956 5.9551 14.3869 5.36954 12.8035 5.21829C11.2196 5.06652 9.62421 5.35582 8.19864 6.05333C6.77306 6.75084 5.57442 7.8286 4.73885 9.16419C3.90203 10.4999 3.46012 12.0395 3.4629 13.6096C3.46569 15.1797 3.91307 16.7178 4.75462 18.0506C5.59595 19.382 6.7985 20.4546 8.2261 21.1468C9.65371 21.839 11.2493 22.1233 12.8323 21.9674C14.415 21.8109 15.9216 21.2204 17.1814 20.2629C17.3527 20.1305 17.4919 19.9621 17.589 19.7701C17.6861 19.5781 17.7387 19.3672 17.743 19.1527C17.7474 18.9382 17.7033 18.7254 17.614 18.5298C17.5247 18.3341 17.3924 18.1605 17.2267 18.0215H17.226Z" fill="#CBD8E4"/>
</g>
<defs>
<clipPath id="clip0_404_222">
<rect width="70" height="23" fill="white" transform="translate(0 0.191406)"/>
</clipPath>
</defs>
</svg>
